<svg width="30" height="36" viewBox="0 0 30 36" fill="none" xmlns="http://www.w3.org/2000/svg">
<path d="M16.1728 15.3015C15.5147 15.3015 14.8836 15.0401 14.4182 14.5747C13.9529 14.1094 13.6915 13.4782 13.6915 12.8202C13.6915 12.1621 13.9529 11.5309 14.4182 11.0656C14.8836 10.6002 15.5147 10.3388 16.1728 10.3388C18.2561 10.3365 20.2533 9.50796 21.7264 8.03493C23.1994 6.56188 24.0282 4.56467 24.0305 2.48143C24.0305 1.82334 24.2919 1.1922 24.7573 0.726853C25.2226 0.261512 25.8538 8.39233e-05 26.5118 8.39233e-05C27.17 8.39233e-05 27.8012 0.261512 28.2664 0.726853C28.7318 1.1922 28.9932 1.82334 28.9932 2.48143C28.9893 5.88039 27.6374 9.13903 25.234 11.5424C22.8305 13.9458 19.5718 15.2977 16.1728 15.3015Z" fill="#EC6C0C"/>
<path d="M2.48152 35.9794C1.82341 35.9794 1.19225 35.718 0.726889 35.2526C0.261531 34.7872 9.15527e-05 34.1562 9.15527e-05 33.498C0.00391299 30.099 1.35587 26.8403 3.75933 24.4369C6.16281 22.0334 9.4215 20.6815 12.8205 20.6778C13.4786 20.6778 14.1097 20.9392 14.5751 21.4046C15.0404 21.8698 15.3018 22.501 15.3018 23.1592C15.3018 23.8172 15.0404 24.4484 14.5751 24.9137C14.1097 25.3791 13.4786 25.6405 12.8205 25.6405C10.7372 25.6428 8.73999 26.4714 7.2669 27.9444C5.7938 29.4176 4.96516 31.4147 4.96278 33.498C4.96278 34.156 4.70137 34.7872 4.23605 35.2526C3.77073 35.718 3.13961 35.9794 2.48152 35.9794Z" fill="#BE3818"/>
<path d="M16.1728 35.9795C15.5183 35.974 14.8924 35.7102 14.4315 35.2455C13.9705 34.7808 13.7119 34.1526 13.7119 33.498C13.7119 32.8436 13.9705 32.2154 14.4315 31.7507C14.8924 31.286 15.5183 31.0222 16.1728 31.0168C17.2047 31.0168 18.2265 30.8134 19.1798 30.4187C20.1332 30.0238 20.9993 29.4449 21.729 28.7154C22.4587 27.9857 23.0374 27.1194 23.4323 26.1662C23.8272 25.2128 24.0304 24.1909 24.0304 23.159C24.0304 22.1272 23.8272 21.1055 23.4323 20.1521C23.0374 19.1988 22.4587 18.3326 21.729 17.6029C20.9993 16.8733 20.1332 16.2945 19.1798 15.8996C18.2265 15.5047 17.2047 15.3015 16.1728 15.3015C15.5147 15.3015 14.8836 15.0401 14.4182 14.5747C13.9529 14.1094 13.6915 13.4782 13.6915 12.8201C13.6915 12.162 13.9529 11.5309 14.4182 11.0656C14.8836 10.6002 15.5147 10.3388 16.1728 10.3388C17.8603 10.3327 19.5324 10.6597 21.0932 11.3013C22.6542 11.9428 24.073 12.8861 25.2683 14.0772C26.4637 15.2683 27.4124 16.6837 28.0595 18.2422C28.7067 19.8006 29.0399 21.4715 29.0399 23.159C29.0399 24.8466 28.7067 26.5176 28.0595 28.076C27.4124 29.6345 26.4637 31.0499 25.2683 32.2409C24.073 33.4321 22.6542 34.3755 21.0932 35.017C19.5324 35.6586 17.8603 35.9856 16.1728 35.9795Z" fill="url(#paint0_linear_103_146)"/>
<path d="M25.059 11.7133C26.3035 10.5194 27.2938 9.08608 27.9698 7.49954C28.646 5.91298 28.994 4.20603 28.9932 2.48143C28.9932 1.82334 28.7318 1.1922 28.2664 0.726853C27.8011 0.261512 27.17 8.39233e-05 26.5119 8.39233e-05C25.8537 8.39233e-05 25.2226 0.261512 24.7573 0.726853C24.2919 1.1922 24.0305 1.82334 24.0305 2.48143C24.0298 3.81618 23.6893 5.12877 23.0408 6.29543C22.3924 7.46209 21.4575 8.44437 20.3242 9.14964C22.0663 9.65903 23.6803 10.5329 25.059 11.7133Z" fill="url(#paint1_linear_103_146)"/>
<path d="M12.8208 25.6405C9.42067 25.6405 6.15979 24.2898 3.75554 21.8855C1.35128 19.4813 0.000579834 16.2204 0.000579834 12.8202C0.000579834 9.42009 1.35128 6.15922 3.75554 3.75496C6.15979 1.3507 9.42067 0 12.8208 0C13.4789 0 14.11 0.261427 14.5754 0.726769C15.0407 1.19211 15.3022 1.82325 15.3022 2.48134C15.3022 3.13944 15.0407 3.77057 14.5754 4.23592C14.11 4.70126 13.4789 4.96269 12.8208 4.96269C11.7889 4.96269 10.7672 5.16592 9.81387 5.5608C8.86054 5.95569 7.99434 6.53447 7.26469 7.2641C6.53505 7.99376 5.95627 8.85995 5.56139 9.81329C5.16651 10.7666 4.96327 11.7884 4.96327 12.8202C4.96327 13.8521 5.16651 14.8739 5.56139 15.8272C5.95627 16.7805 6.53505 17.6467 7.26469 18.3764C7.99434 19.1059 8.86054 19.6848 9.81387 20.0797C10.7672 20.4745 11.7889 20.6778 12.8208 20.6778C13.4789 20.6778 14.11 20.9392 14.5754 21.4046C15.0407 21.8698 15.3022 22.501 15.3022 23.159C15.3022 23.8172 15.0407 24.4484 14.5754 24.9137C14.11 25.3791 13.4789 25.6405 12.8208 25.6405Z" fill="url(#paint2_linear_103_146)"/>
<path d="M3.93446 24.266C2.68982 25.4599 1.69963 26.8932 1.02348 28.4798C0.347335 30.0664 -0.000784399 31.7733 8.49339e-05 33.498C-0.00262539 33.8257 0.0595559 34.1504 0.18304 34.454C0.306524 34.7573 0.48887 35.0333 0.719553 35.2659C0.950236 35.4986 1.22469 35.6832 1.52709 35.8091C1.82949 35.9351 2.15384 36 2.48143 36C2.80903 36 3.13339 35.9351 3.43578 35.8091C3.73818 35.6832 4.01263 35.4986 4.24331 35.2659C4.47399 35.0333 4.65633 34.7573 4.77982 34.454C4.9033 34.1504 4.96549 33.8257 4.96277 33.498C4.96343 32.1633 5.30406 30.8506 5.95254 29.6839C6.601 28.5172 7.53596 27.5349 8.6692 26.8296C6.92712 26.3202 5.31322 25.4463 3.93446 24.266Z" fill="#E64A1A"/>
<defs>
<linearGradient id="paint0_linear_103_146" x1="21.3657" y1="35.9794" x2="21.3657" y2="10.3387" gradientUnits="userSpaceOnUse">
<stop stop-color="#E9592D"/>
<stop offset="1" stop-color="#F39519"/>
</linearGradient>
<linearGradient id="paint1_linear_103_146" x1="22.6735" y1="10.5068" x2="30.5708" y2="3.0202" gradientUnits="userSpaceOnUse">
<stop offset="0.005" stop-color="#F39519"/>
<stop offset="0.146" stop-color="#F39519"/>
<stop offset="1" stop-color="#F39519"/>
</linearGradient>
<linearGradient id="paint2_linear_103_146" x1="7.65137" y1="25.6405" x2="7.65137" y2="0" gradientUnits="userSpaceOnUse">
<stop stop-color="#E9592D"/>
<stop offset="1" stop-color="#F39519"/>
</linearGradient>
</defs>
</svg>
