<svg width="41" height="36" viewBox="0 0 41 36" fill="none" xmlns="http://www.w3.org/2000/svg">
<path d="M35.2591 5.08403L33.2731 15.143C33.269 15.1631 33.2705 15.1839 33.2774 15.2033C33.284 15.2226 33.296 15.2398 33.3116 15.253C33.3273 15.2663 33.3463 15.275 33.3664 15.2784C33.3867 15.2818 33.4075 15.2798 33.4266 15.2724L35.5499 14.4722C35.555 14.5016 35.5601 14.5322 35.5649 14.5605C36.0747 17.7732 35.7011 21.0641 34.4841 24.0807C33.267 27.0974 31.2523 29.7261 28.6558 31.6856C26.0591 33.6448 22.9785 34.861 19.7436 35.2037C16.5088 35.5465 13.2417 35.0029 10.2922 33.631C13.385 35.3463 16.8973 36.1583 20.4291 35.9745C23.9609 35.7907 27.3701 34.6187 30.268 32.5917C33.1662 30.5647 35.4367 27.7647 36.8208 24.5101C38.2049 21.2558 38.6472 17.6779 38.0969 14.1845L40.5423 14.383C40.5631 14.3846 40.5838 14.3806 40.6025 14.3713C40.6211 14.3621 40.6368 14.3479 40.6481 14.3304C40.6593 14.3129 40.6655 14.2927 40.6661 14.2719C40.6667 14.2511 40.6617 14.2306 40.6515 14.2124L35.4714 5.04925C35.4598 5.02891 35.4423 5.0126 35.4211 5.00253C35.4 4.99245 35.3763 4.98907 35.3533 4.99286C35.3301 4.99664 35.3088 5.00742 35.2919 5.0237C35.275 5.04001 35.2636 5.06107 35.2591 5.08403Z" fill="url(#paint0_linear_103_178)"/>
<path d="M31.4659 26.0697C29.8617 28.1101 27.8013 29.7461 25.4505 30.8463C23.0996 31.9465 20.5235 32.4804 17.9291 32.405C15.3345 32.3296 12.7938 31.6472 10.5107 30.4125C8.22767 29.1776 6.26581 27.4248 4.78263 25.2947C3.29944 23.1647 2.33619 20.7166 1.97017 18.1468C1.60417 15.5772 1.84559 12.9575 2.67508 10.498C3.50456 8.03856 4.899 5.80774 6.7465 3.98459C8.59401 2.16145 10.8431 0.79675 13.3134 0C10.1302 0.78235 7.231 2.44365 4.9465 4.79437C2.66199 7.1451 1.08418 10.0906 0.393083 13.2949C-0.29802 16.4991 -0.0745963 19.8331 1.03787 22.9164C2.15034 25.9999 4.10705 28.7085 6.68479 30.7334C9.26254 32.7583 12.3575 34.0179 15.6166 34.3685C18.8758 34.7191 22.1678 34.1467 25.1173 32.7164C28.0668 31.286 30.5548 29.0557 32.2977 26.2794C34.0404 23.5032 34.9679 20.293 34.9742 17.0151C34.7401 20.317 33.5176 23.472 31.4659 26.0697Z" fill="url(#paint1_linear_103_178)"/>
<path d="M27.8156 8.53587C26.7927 9.83876 25.6294 11.0251 24.3467 12.0735C24.3338 12.0841 24.3232 12.0976 24.316 12.1128C24.3089 12.128 24.3051 12.1446 24.3051 12.1615V28.4377C24.3051 28.5686 24.2635 28.6962 24.1863 28.8019C24.109 28.9078 24.0002 28.9862 23.8756 29.0261L23.8623 29.0304C23.7699 29.0601 23.6718 29.0674 23.576 29.0519C23.4802 29.0365 23.3893 28.9985 23.311 28.9414C23.2326 28.8841 23.1688 28.8092 23.1248 28.7228C23.0808 28.6362 23.0579 28.5405 23.0579 28.4435V13.269C23.0579 13.2481 23.0523 13.2276 23.0416 13.2098C23.0308 13.1919 23.0153 13.1774 22.9967 13.1677C22.9783 13.1581 22.9575 13.1537 22.9367 13.155C22.9159 13.1564 22.8958 13.1634 22.8787 13.1754C21.1804 14.3448 19.3289 15.2743 17.3766 15.9378C17.3541 15.9454 17.3345 15.9598 17.3205 15.9792C17.3067 15.9985 17.2992 16.0217 17.2992 16.0455V29.1907C17.2992 29.2819 17.2789 29.3721 17.2398 29.4545C17.2008 29.537 17.144 29.6098 17.0736 29.6678C17.003 29.7258 16.9205 29.7672 16.832 29.7896C16.7435 29.8117 16.6512 29.8141 16.5617 29.7964L16.5375 29.7916C16.3978 29.764 16.2722 29.6886 16.1819 29.5785C16.0917 29.4683 16.0426 29.3304 16.0429 29.188C16.0462 27.7727 16.0494 25.8671 16.0518 25.8685V16.4928C16.0518 16.4753 16.0478 16.4581 16.0401 16.4424C16.0323 16.4267 16.0211 16.413 16.0072 16.4024C15.9933 16.3917 15.9771 16.3845 15.96 16.3811C15.9428 16.3777 15.9251 16.3783 15.9082 16.3828L15.8518 16.3977C14.2591 16.8162 12.8499 17.7504 11.8442 19.0543C10.8385 20.3585 10.293 21.9588 10.2929 23.6055V25.7645C10.2932 25.885 10.2581 26.0032 10.192 26.104C10.1259 26.2049 10.0317 26.2842 9.921 26.3321C9.81029 26.3799 9.688 26.3944 9.56921 26.3734C9.45045 26.3526 9.34039 26.2973 9.2527 26.2145C6.80649 23.8633 5.25112 20.7369 4.85152 17.3676C4.45193 13.9983 5.23284 10.5948 7.06123 7.73668C8.88963 4.87861 11.6524 2.74287 14.8788 1.6933C18.1052 0.643723 21.5957 0.745253 24.7558 1.9806C22.2678 0.797821 19.5086 0.302331 16.7644 0.545526C14.0203 0.788719 11.3913 1.76173 9.14999 3.36363C6.90874 4.96554 5.13694 7.13795 4.01838 9.65554C2.89984 12.1731 2.4753 14.9441 2.78882 17.6812C3.10233 20.418 4.14248 23.0213 5.80137 25.2207C7.46025 27.4202 9.67741 29.1356 12.2229 30.1893C14.7683 31.2427 17.5493 31.596 20.2773 31.2125C23.0054 30.8289 25.5809 29.7222 27.7372 28.0075C28.4893 27.4884 29.191 26.8996 29.8325 26.2487L29.8999 26.1766C30.0061 26.0627 30.0651 25.9126 30.0648 25.7568V5.68087C30.0648 5.68087 30.0648 5.60925 30.0648 5.51427C30.0649 5.48888 30.0566 5.46415 30.0412 5.44398C30.0257 5.42383 30.0041 5.40937 29.9795 5.4029C29.9549 5.39644 29.9289 5.39833 29.9055 5.40827C29.8821 5.41822 29.8629 5.43564 29.8504 5.45783C29.2572 6.53761 28.5766 7.56705 27.8156 8.53587Z" fill="url(#paint2_linear_103_178)"/>
<defs>
<linearGradient id="paint0_linear_103_178" x1="10.2922" y1="20.4957" x2="40.6661" y2="20.4957" gradientUnits="userSpaceOnUse">
<stop stop-color="#403BEB"/>
<stop offset="1" stop-color="#22B7A0"/>
</linearGradient>
<linearGradient id="paint1_linear_103_178" x1="-2.13615e-08" y1="17.2344" x2="34.9742" y2="17.2344" gradientUnits="userSpaceOnUse">
<stop stop-color="#403BEB"/>
<stop offset="1" stop-color="#22B7A0"/>
</linearGradient>
<linearGradient id="paint2_linear_103_178" x1="2.68852" y1="15.9241" x2="30.0648" y2="15.9241" gradientUnits="userSpaceOnUse">
<stop stop-color="#403BEB"/>
<stop offset="1" stop-color="#22B7A0"/>
</linearGradient>
</defs>
</svg>
