<svg width="28" height="40" viewBox="0 0 28 40" fill="none" xmlns="http://www.w3.org/2000/svg">
<path d="M13.4289 12.3476C14.8762 12.3353 16.3131 12.5943 17.6651 13.1113C16.6708 8.1201 15.1373 5.06739 13.4206 5.06967H13.4187C11.7024 5.07299 10.1776 8.12881 9.19598 13.1213C10.5462 12.6013 11.9818 12.3388 13.4287 12.3476H13.4289Z" fill="url(#paint0_linear_103_162)"/>
<path d="M13.5295 35.9391L11.3451 35.942C11.8962 39.3616 12.6753 40.0012 13.5365 40C14.3978 39.9988 15.1715 39.3568 15.7151 35.9364L13.5295 35.9391Z" fill="#454EEC"/>
<path d="M18.8407 26.2142C18.7512 23.6594 18.5745 20.9746 18.2846 18.1739C18.136 16.7386 17.9663 15.3415 17.7752 13.9827C14.9796 12.9028 11.8814 12.9064 9.0883 13.9929C8.90198 15.3647 8.73599 16.7749 8.59033 18.2235C8.30816 21.0453 8.13802 23.7513 8.0542 26.3274C5.64116 28.1118 3.97506 31.4963 3.98067 35.9362L7.99071 35.931C8.72437 35.931 9.16112 35.7443 9.16112 34.9959L9.15863 34.9818L13.4581 34.9764L17.8983 34.9708C17.8983 35.7632 18.3178 35.9182 19.0546 35.9171L23.0798 35.9122C23.0735 31.3873 21.3332 27.9448 18.8407 26.2142ZM13.4324 15.2882C13.7622 15.2878 14.0847 15.3852 14.3591 15.568C14.6336 15.7508 14.8476 16.011 14.9742 16.3155C15.1008 16.62 15.1343 16.9552 15.0704 17.2787C15.0065 17.6022 14.8481 17.8995 14.6152 18.133C14.3823 18.3665 14.0854 18.5257 13.7621 18.5905C13.4387 18.6552 13.1034 18.6226 12.7986 18.4968C12.4937 18.371 12.2331 18.1576 12.0495 17.8837C11.8659 17.6097 11.7677 17.2874 11.7673 16.9577C11.7668 16.5155 11.942 16.0913 12.2542 15.7782C12.5665 15.4651 12.9902 15.2889 13.4324 15.2882ZM13.4394 20.72C13.7692 20.7196 14.0916 20.8169 14.366 20.9999C14.6404 21.1827 14.8544 21.4426 14.981 21.7472C15.1075 22.0516 15.141 22.3869 15.077 22.7104C15.0131 23.0338 14.8547 23.331 14.6218 23.5644C14.389 23.798 14.0921 23.9571 13.7688 24.0219C13.4455 24.0866 13.1102 24.0538 12.8055 23.9281C12.5007 23.8024 12.24 23.5891 12.0565 23.315C11.873 23.0411 11.7748 22.7189 11.7744 22.3892C11.7739 21.947 11.949 21.5227 12.2613 21.2098C12.5735 20.8968 12.9973 20.7206 13.4394 20.72ZM13.4506 29.4862C13.1209 29.4866 12.7985 29.3893 12.5241 29.2063C12.2497 29.0235 12.0357 28.7635 11.9091 28.4589C11.7826 28.1545 11.7492 27.8192 11.8131 27.4958C11.877 27.1723 12.0354 26.8752 12.2683 26.6416C12.5011 26.4081 12.798 26.249 13.1213 26.1843C13.4446 26.1195 13.7799 26.1521 14.0846 26.2781C14.3894 26.4038 14.6501 26.6171 14.8336 26.8912C15.0171 27.165 15.1153 27.4873 15.1157 27.817C15.116 28.0359 15.0731 28.2527 14.9896 28.4552C14.906 28.6575 14.7835 28.8415 14.6288 28.9965C14.4742 29.1515 14.2905 29.2745 14.0883 29.3586C13.8862 29.4426 13.6694 29.4862 13.4504 29.4864L13.4506 29.4862Z" fill="url(#paint1_linear_103_162)"/>
<path d="M13.4342 15.9835C13.1789 15.9876 12.9354 16.0919 12.7564 16.274C12.5774 16.4561 12.4772 16.7013 12.4776 16.9567C12.4779 17.2121 12.5787 17.457 12.7582 17.6387C12.9376 17.8203 13.1814 17.924 13.4367 17.9274C13.6945 17.9271 13.9416 17.8244 14.1236 17.6419C14.3057 17.4594 14.4078 17.212 14.4074 16.9542C14.4071 16.6965 14.3044 16.4494 14.1219 16.2673C13.9394 16.0853 13.692 15.9832 13.4342 15.9835Z" fill="#454EEC"/>
<path d="M13.4413 21.4153H13.4394C13.1841 21.4192 12.9406 21.5236 12.7616 21.7057C12.5826 21.8879 12.4824 22.1332 12.4828 22.3884C12.4831 22.6438 12.5839 22.8888 12.7634 23.0704C12.9428 23.2521 13.1866 23.3559 13.4419 23.3592C13.6997 23.359 13.9468 23.2563 14.129 23.0737C14.3111 22.8913 14.4132 22.6438 14.4129 22.3861C14.4126 22.1282 14.31 21.8811 14.1275 21.6991C13.945 21.5169 13.6976 21.4148 13.4398 21.4151L13.4413 21.4153Z" fill="url(#paint2_linear_103_162)"/>
<path d="M13.4482 26.8472H13.4471C13.1918 26.8511 12.9483 26.9555 12.7693 27.1377C12.5903 27.3198 12.4901 27.5651 12.4905 27.8203C12.4908 28.0757 12.5916 28.3207 12.7711 28.5023C12.9506 28.684 13.1943 28.7878 13.4496 28.7911C13.7074 28.7907 13.9545 28.6882 14.1366 28.5056C14.3186 28.323 14.4207 28.0757 14.4205 27.818C14.4201 27.5603 14.3175 27.3132 14.135 27.131C13.9525 26.9491 13.7051 26.847 13.4474 26.8472H13.4482Z" fill="url(#paint3_linear_103_162)"/>
<path d="M18.6961 12.9964C17.8744 8.87265 16.2919 3.95528 13.4175 3.95528H13.389C11.0922 3.98205 9.3317 7.02791 8.15588 13.0086L8.15339 13.0215L7.82474 14.8918C7.69174 15.7377 7.57348 16.6157 7.47202 17.5094C7.45183 17.6871 7.43224 17.8662 7.4133 18.0468C7.28756 19.2456 7.18859 20.5046 7.11805 21.7972C6.76221 21.5227 6.4241 21.226 6.10574 20.9088C4.59704 19.402 3.58499 17.4701 3.20528 15.3719C2.82556 13.2738 3.09631 11.1097 3.98125 9.16974C4.86617 7.22979 6.32297 5.60673 8.15636 4.5181C9.98975 3.42947 12.1121 2.92734 14.239 3.07897C16.3658 3.2306 18.3955 4.02877 20.0559 5.36648C21.7164 6.70421 22.9281 8.51752 23.5288 10.5634C24.1297 12.6092 24.0906 14.7899 23.4172 16.8129C22.7435 18.836 21.4676 20.6048 19.7605 21.8823C19.6866 20.5565 19.5822 19.2636 19.4492 18.0316C19.4297 17.8518 19.4097 17.6727 19.3893 17.4942C19.2855 16.602 19.166 15.7238 19.0307 14.8799L18.6961 12.9964Z" fill="url(#paint4_linear_103_162)"/>
<path d="M13.4836 0.000423744C10.498 0.00846984 7.59894 1.00458 5.23889 2.83333C2.87882 4.6621 1.19048 7.22062 0.437286 10.1097C-0.315908 12.9988 -0.0915895 16.056 1.07524 18.8042C2.24208 21.5524 4.28579 23.8372 6.88751 25.3018C6.91517 24.7389 6.94588 24.1823 6.97964 23.6322C5.40604 22.6153 4.09007 21.247 3.13538 19.6348C2.05646 17.8069 1.48012 15.7261 1.46482 13.6035C1.44953 11.4809 1.99582 9.39208 3.0483 7.54876C4.10076 5.70543 5.62197 4.17322 7.45766 3.10748C9.29335 2.04176 11.3782 1.48044 13.5009 1.48044C15.6235 1.48044 17.7084 2.04176 19.5441 3.10748C21.3796 4.17322 22.9009 5.70543 23.9535 7.54876C25.0058 9.39208 25.5521 11.4809 25.5368 13.6035C25.5216 15.7261 24.9452 17.8069 23.8663 19.6348C22.8866 21.2893 21.5267 22.6863 19.8992 23.7104C19.933 24.2578 19.9642 24.8105 19.9928 25.3689C22.626 23.9262 24.7039 21.6478 25.8986 18.8934C27.0933 16.1388 27.3369 13.0648 26.5906 10.1565C25.8445 7.24817 24.151 4.67114 21.7776 2.83207C19.4043 0.992975 16.4862 -0.0034555 13.4836 9.00385e-06V0.000423744Z" fill="url(#paint5_linear_103_162)"/>
<defs>
<linearGradient id="paint0_linear_103_162" x1="13.4305" y1="39.3856" x2="13.4305" y2="12.8234" gradientUnits="userSpaceOnUse">
<stop stop-color="#1153FC"/>
<stop offset="1" stop-color="#5581F1"/>
</linearGradient>
<linearGradient id="paint1_linear_103_162" x1="13.5302" y1="39.3958" x2="13.5302" y2="12.834" gradientUnits="userSpaceOnUse">
<stop stop-color="#1153FC"/>
<stop offset="1" stop-color="#5581F1"/>
</linearGradient>
<linearGradient id="paint2_linear_103_162" x1="13.4478" y1="39.3886" x2="13.4478" y2="12.8259" gradientUnits="userSpaceOnUse">
<stop stop-color="#1153FC"/>
<stop offset="1" stop-color="#5581F1"/>
</linearGradient>
<linearGradient id="paint3_linear_103_162" x1="13.4555" y1="39.3894" x2="13.4555" y2="12.8257" gradientUnits="userSpaceOnUse">
<stop stop-color="#1153FC"/>
<stop offset="1" stop-color="#5581F1"/>
</linearGradient>
<linearGradient id="paint4_linear_103_162" x1="13.4953" y1="39.3753" x2="13.4953" y2="12.8252" gradientUnits="userSpaceOnUse">
<stop stop-color="#1153FC"/>
<stop offset="1" stop-color="#5581F1"/>
</linearGradient>
<linearGradient id="paint5_linear_103_162" x1="13.5074" y1="39.3979" x2="13.5074" y2="12.8366" gradientUnits="userSpaceOnUse">
<stop stop-color="#1153FC"/>
<stop offset="1" stop-color="#5581F1"/>
</linearGradient>
</defs>
</svg>
