<svg width="30" height="30" viewBox="0 0 30 30" fill="none" xmlns="http://www.w3.org/2000/svg">
<g clip-path="url(#clip0_102_96)">
<path d="M15 27.5C8.09625 27.5 2.5 21.9038 2.5 15C2.5 8.09625 8.09625 2.5 15 2.5C21.9038 2.5 27.5 8.09625 27.5 15C27.5 21.9038 21.9038 27.5 15 27.5ZM15 25C17.6522 25 20.1957 23.9464 22.0711 22.0711C23.9464 20.1957 25 17.6522 25 15C25 12.3478 23.9464 9.8043 22.0711 7.92893C20.1957 6.05357 17.6522 5 15 5C12.3478 5 9.8043 6.05357 7.92893 7.92893C6.05357 9.8043 5 12.3478 5 15C5 17.6522 6.05357 20.1957 7.92893 22.0711C9.8043 23.9464 12.3478 25 15 25ZM8.75 15H11.25C11.25 15.9946 11.6451 16.9484 12.3483 17.6517C13.0516 18.3549 14.0054 18.75 15 18.75C15.9946 18.75 16.9484 18.3549 17.6517 17.6517C18.3549 16.9484 18.75 15.9946 18.75 15H21.25C21.25 16.6576 20.5915 18.2473 19.4194 19.4194C18.2473 20.5915 16.6576 21.25 15 21.25C13.3424 21.25 11.7527 20.5915 10.5806 19.4194C9.40848 18.2473 8.75 16.6576 8.75 15Z" fill="#64696C"/>
</g>
<defs>
<clipPath id="clip0_102_96">
<rect width="30" height="30" fill="white"/>
</clipPath>
</defs>
</svg>
