<svg width="30" height="30" viewBox="0 0 30 30" fill="none" xmlns="http://www.w3.org/2000/svg">
<g clip-path="url(#clip0_102_48)">
<path d="M16.25 23.75H23.75V12.4725L15 5.6675L6.25 12.4725V23.75H13.75V16.25H16.25V23.75ZM26.25 25C26.25 25.3315 26.1183 25.6495 25.8839 25.8839C25.6495 26.1183 25.3315 26.25 25 26.25H5C4.66848 26.25 4.35054 26.1183 4.11612 25.8839C3.8817 25.6495 3.75 25.3315 3.75 25V11.8625C3.74987 11.672 3.79327 11.484 3.8769 11.3129C3.96052 11.1417 4.08215 10.992 4.2325 10.875L14.2325 3.0975C14.4519 2.92681 14.722 2.83414 15 2.83414C15.278 2.83414 15.5481 2.92681 15.7675 3.0975L25.7675 10.875C25.9179 10.992 26.0395 11.1417 26.1231 11.3129C26.2067 11.484 26.2501 11.672 26.25 11.8625V25Z" fill="#454EEC"/>
</g>
<defs>
<clipPath id="clip0_102_48">
<rect width="30" height="30" fill="white"/>
</clipPath>
</defs>
</svg>
