<svg width="30" height="30" viewBox="0 0 30 30" fill="none" xmlns="http://www.w3.org/2000/svg">
<g clip-path="url(#clip0_102_99)">
<path d="M27.5 8.75H28.75V21.25H27.5V25C27.5 25.3315 27.3683 25.6495 27.1339 25.8839C26.8995 26.1183 26.5815 26.25 26.25 26.25H3.75C3.41848 26.25 3.10054 26.1183 2.86612 25.8839C2.6317 25.6495 2.5 25.3315 2.5 25V5C2.5 4.66848 2.6317 4.35054 2.86612 4.11612C3.10054 3.8817 3.41848 3.75 3.75 3.75H26.25C26.5815 3.75 26.8995 3.8817 27.1339 4.11612C27.3683 4.35054 27.5 4.66848 27.5 5V8.75ZM25 21.25H17.5C15.8424 21.25 14.2527 20.5915 13.0806 19.4194C11.9085 18.2473 11.25 16.6576 11.25 15C11.25 13.3424 11.9085 11.7527 13.0806 10.5806C14.2527 9.40848 15.8424 8.75 17.5 8.75H25V6.25H5V23.75H25V21.25ZM26.25 18.75V11.25H17.5C16.5054 11.25 15.5516 11.6451 14.8483 12.3483C14.1451 13.0516 13.75 14.0054 13.75 15C13.75 15.9946 14.1451 16.9484 14.8483 17.6517C15.5516 18.3549 16.5054 18.75 17.5 18.75H26.25ZM17.5 13.75H21.25V16.25H17.5V13.75Z" fill="#64696C"/>
</g>
<defs>
<clipPath id="clip0_102_99">
<rect width="30" height="30" fill="white"/>
</clipPath>
</defs>
</svg>
