<svg width="30" height="30" viewBox="0 0 30 30" fill="none" xmlns="http://www.w3.org/2000/svg">
<g clip-path="url(#clip0_102_69)">
<path d="M25 27.5H5C4.66848 27.5 4.35054 27.3683 4.11612 27.1339C3.8817 26.8995 3.75 26.5815 3.75 26.25V3.75C3.75 3.41848 3.8817 3.10054 4.11612 2.86612C4.35054 2.6317 4.66848 2.5 5 2.5H25C25.3315 2.5 25.6495 2.6317 25.8839 2.86612C26.1183 3.10054 26.25 3.41848 26.25 3.75V26.25C26.25 26.5815 26.1183 26.8995 25.8839 27.1339C25.6495 27.3683 25.3315 27.5 25 27.5ZM23.75 25V5H6.25V25H23.75ZM11.25 7.5V10C11.25 10.9946 11.6451 11.9484 12.3483 12.6517C13.0516 13.3549 14.0054 13.75 15 13.75C15.9946 13.75 16.9484 13.3549 17.6517 12.6517C18.3549 11.9484 18.75 10.9946 18.75 10V7.5H21.25V10C21.25 11.6576 20.5915 13.2473 19.4194 14.4194C18.2473 15.5915 16.6576 16.25 15 16.25C13.3424 16.25 11.7527 15.5915 10.5806 14.4194C9.40848 13.2473 8.75 11.6576 8.75 10V7.5H11.25Z" fill="#64696C"/>
</g>
<defs>
<clipPath id="clip0_102_69">
<rect width="30" height="30" fill="white"/>
</clipPath>
</defs>
</svg>
