<svg width="30" height="30" viewBox="0 0 30 30" fill="none" xmlns="http://www.w3.org/2000/svg">
<g clip-path="url(#clip0_102_90)">
<path d="M16.25 21.1725V23.75H22.5V26.25H7.5V23.75H13.75V21.1725C11.3334 20.8678 9.11102 19.6916 7.5 17.8647C5.88898 16.0378 5.00004 13.6858 5 11.25V3.75H25V11.25C25 13.6858 24.111 16.0378 22.5 17.8647C20.889 19.6916 18.6666 20.8678 16.25 21.1725ZM7.5 6.25V11.25C7.5 13.2391 8.29018 15.1468 9.6967 16.5533C11.1032 17.9598 13.0109 18.75 15 18.75C16.9891 18.75 18.8968 17.9598 20.3033 16.5533C21.7098 15.1468 22.5 13.2391 22.5 11.25V6.25H7.5ZM1.25 6.25H3.75V11.25H1.25V6.25ZM26.25 6.25H28.75V11.25H26.25V6.25Z" fill="#64696C"/>
</g>
<defs>
<clipPath id="clip0_102_90">
<rect width="30" height="30" fill="white"/>
</clipPath>
</defs>
</svg>
