<svg width="30" height="30" viewBox="0 0 30 30" fill="none" xmlns="http://www.w3.org/2000/svg">
<g clip-path="url(#clip0_102_63)">
<path d="M10.8575 5.00001L14.1162 1.74126C14.3506 1.50692 14.6685 1.37527 15 1.37527C15.3314 1.37527 15.6493 1.50692 15.8837 1.74126L19.1425 5.00001H23.75C24.0815 5.00001 24.3994 5.1317 24.6339 5.36612C24.8683 5.60054 25 5.91849 25 6.25001V10.8575L28.2587 14.1163C28.4931 14.3507 28.6247 14.6686 28.6247 15C28.6247 15.3315 28.4931 15.6493 28.2587 15.8838L25 19.1425V23.75C25 24.0815 24.8683 24.3995 24.6339 24.6339C24.3994 24.8683 24.0815 25 23.75 25H19.1425L15.8837 28.2588C15.6493 28.4931 15.3314 28.6247 15 28.6247C14.6685 28.6247 14.3506 28.4931 14.1162 28.2588L10.8575 25H6.24998C5.91846 25 5.60051 24.8683 5.36609 24.6339C5.13167 24.3995 4.99998 24.0815 4.99998 23.75V19.1425L1.74123 15.8838C1.50689 15.6493 1.37524 15.3315 1.37524 15C1.37524 14.6686 1.50689 14.3507 1.74123 14.1163L4.99998 10.8575V6.25001C4.99998 5.91849 5.13167 5.60054 5.36609 5.36612C5.60051 5.1317 5.91846 5.00001 6.24998 5.00001H10.8575ZM7.49998 7.50001V11.8938L4.39373 15L7.49998 18.1063V22.5H11.8937L15 25.6063L18.1062 22.5H22.5V18.1063L25.6062 15L22.5 11.8938V7.50001H18.1062L15 4.39376L11.8937 7.50001H7.49998ZM15 20C13.6739 20 12.4021 19.4732 11.4644 18.5355C10.5268 17.5979 9.99998 16.3261 9.99998 15C9.99998 13.6739 10.5268 12.4022 11.4644 11.4645C12.4021 10.5268 13.6739 10 15 10C16.3261 10 17.5978 10.5268 18.5355 11.4645C19.4732 12.4022 20 13.6739 20 15C20 16.3261 19.4732 17.5979 18.5355 18.5355C17.5978 19.4732 16.3261 20 15 20ZM15 17.5C15.663 17.5 16.2989 17.2366 16.7677 16.7678C17.2366 16.2989 17.5 15.663 17.5 15C17.5 14.337 17.2366 13.7011 16.7677 13.2322C16.2989 12.7634 15.663 12.5 15 12.5C14.3369 12.5 13.7011 12.7634 13.2322 13.2322C12.7634 13.7011 12.5 14.337 12.5 15C12.5 15.663 12.7634 16.2989 13.2322 16.7678C13.7011 17.2366 14.3369 17.5 15 17.5Z" fill="#64696C"/>
</g>
<defs>
<clipPath id="clip0_102_63">
<rect width="30" height="30" fill="white"/>
</clipPath>
</defs>
</svg>
