<svg width="30" height="30" viewBox="0 0 30 30" fill="none" xmlns="http://www.w3.org/2000/svg">
<g clip-path="url(#clip0_102_84)">
<path d="M26.25 16.5525V25H27.5V27.5H2.5V25H3.75V16.5525C2.98046 16.0388 2.34964 15.3432 1.91352 14.5272C1.47741 13.7112 1.24949 12.8002 1.25 11.875C1.25 10.8412 1.53 9.84499 2.04125 8.99624L5.43125 3.12498C5.54096 2.93497 5.69875 2.77717 5.88877 2.66746C6.07879 2.55775 6.29434 2.49999 6.51375 2.49998H23.4875C23.7069 2.49999 23.9225 2.55775 24.1125 2.66746C24.3025 2.77717 24.4603 2.93497 24.57 3.12498L27.9475 8.97749C28.6932 10.2161 28.9329 11.6944 28.6168 13.1052C28.3006 14.5159 27.453 15.7506 26.25 16.5525ZM23.75 17.465C22.8905 17.5614 22.0204 17.4582 21.2074 17.1633C20.3944 16.8684 19.6604 16.3899 19.0625 15.765C18.5378 16.3138 17.9072 16.7506 17.209 17.049C16.5108 17.3475 15.7593 17.5013 15 17.5012C14.2409 17.5016 13.4895 17.3482 12.7913 17.0502C12.0931 16.7522 11.4625 16.3159 10.9375 15.7675C10.3395 16.3922 9.60547 16.8705 8.79244 17.1651C7.97942 17.4598 7.10936 17.5628 6.25 17.4662V25H23.75V17.4662V17.465ZM7.23625 4.99998L4.195 10.2662C3.89947 10.9964 3.8906 11.8113 4.17017 12.5477C4.44973 13.2842 4.9971 13.8878 5.70273 14.238C6.40836 14.5881 7.22018 14.6588 7.97573 14.436C8.73127 14.2132 9.3748 13.7132 9.7775 13.0362C10.1963 11.99 11.6775 11.99 12.0975 13.0362C12.3291 13.6168 12.7295 14.1145 13.2469 14.4651C13.7643 14.8157 14.375 15.0032 15 15.0032C15.625 15.0032 16.2357 14.8157 16.7531 14.4651C17.2705 14.1145 17.6709 13.6168 17.9025 13.0362C18.3213 11.99 19.8025 11.99 20.2225 13.0362C20.3847 13.4355 20.6278 13.797 20.9364 14.0978C21.2451 14.3987 21.6126 14.6324 22.0159 14.7844C22.4192 14.9363 22.8496 15.0032 23.2801 14.9808C23.7105 14.9584 24.1316 14.8473 24.517 14.6543C24.9024 14.4613 25.2437 14.1906 25.5194 13.8594C25.7952 13.5282 25.9994 13.1434 26.1193 12.7295C26.2393 12.3155 26.2722 11.8811 26.2162 11.4538C26.1602 11.0265 26.0163 10.6153 25.7938 10.2462L22.7625 4.99998H7.2375H7.23625Z" fill="#64696C"/>
</g>
<defs>
<clipPath id="clip0_102_84">
<rect width="30" height="30" fill="white"/>
</clipPath>
</defs>
</svg>
