<svg width="30" height="30" viewBox="0 0 30 30" fill="none" xmlns="http://www.w3.org/2000/svg">
<g clip-path="url(#clip0_104_348)">
<path d="M12.5 3.75H17.5C20.1522 3.75 22.6957 4.80357 24.5711 6.67893C26.4464 8.5543 27.5 11.0978 27.5 13.75C27.5 16.4022 26.4464 18.9457 24.5711 20.8211C22.6957 22.6964 20.1522 23.75 17.5 23.75V28.125C11.25 25.625 2.5 21.875 2.5 13.75C2.5 11.0978 3.55357 8.5543 5.42893 6.67893C7.3043 4.80357 9.84784 3.75 12.5 3.75ZM15 21.25H17.5C18.4849 21.25 19.4602 21.056 20.3701 20.6791C21.2801 20.3022 22.1069 19.7497 22.8033 19.0533C23.4997 18.3569 24.0522 17.5301 24.4291 16.6201C24.806 15.7102 25 14.7349 25 13.75C25 12.7651 24.806 11.7898 24.4291 10.8799C24.0522 9.96993 23.4997 9.14314 22.8033 8.4467C22.1069 7.75026 21.2801 7.19781 20.3701 6.8209C19.4602 6.44399 18.4849 6.25 17.5 6.25H12.5C10.5109 6.25 8.60322 7.04018 7.1967 8.4467C5.79018 9.85322 5 11.7609 5 13.75C5 18.2625 8.0775 21.2075 15 24.35V21.25Z" fill="#64696C"/>
<circle cx="25" cy="8.33332" r="4.16667" fill="#98F8A0"/>
</g>
<defs>
<clipPath id="clip0_104_348">
<rect width="30" height="30" fill="white"/>
</clipPath>
</defs>
</svg>
